<?xml version="1.0" standalone="no"?>
<!DOCTYPE svg PUBLIC "-//W3C//DTD SVG 20010904//EN"
 "http://www.w3.org/TR/2001/REC-SVG-20010904/DTD/svg10.dtd">
<svg version="1.0" xmlns="http://www.w3.org/2000/svg"
 width="238.000000pt" height="212.000000pt" viewBox="0 0 238.000000 212.000000"
 preserveAspectRatio="xMidYMid meet">

<g transform="translate(0.000000,212.000000) scale(0.100000,-0.100000)"
fill="#000000" stroke="none">
<path d="M0 1840 c0 -154 2 -280 5 -280 3 0 21 16 41 35 19 19 41 35 49 35 8
0 15 8 15 18 0 9 17 35 36 57 20 22 49 55 65 72 16 18 29 38 29 44 0 7 11 24
25 38 13 14 43 51 65 81 40 55 51 90 28 90 -7 0 -2 6 12 13 18 9 24 19 22 36
-2 13 1 21 6 17 5 -3 15 1 22 9 11 13 -13 15 -204 15 l-216 0 0 -280z"/>
<path d="M475 2059 c-27 -34 -56 -68 -64 -76 -12 -13 -12 -16 0 -24 11 -7 9
-9 -8 -9 -13 0 -31 -13 -44 -32 -13 -18 -27 -34 -31 -36 -4 -2 -8 -8 -8 -13 0
-6 -25 -46 -55 -89 -30 -43 -55 -83 -55 -87 0 -5 -11 -20 -25 -35 -14 -15 -25
-30 -25 -33 0 -3 -18 -33 -40 -65 -22 -32 -40 -64 -40 -69 0 -6 -4 -11 -8 -11
-4 0 -22 -24 -40 -53 -30 -49 -32 -60 -32 -140 0 -79 2 -87 19 -87 11 0 27 10
36 23 10 14 18 18 23 11 12 -18 102 -36 215 -41 92 -5 107 -4 107 9 0 9 9 18
21 21 12 3 18 10 15 16 -7 11 29 25 43 16 5 -3 13 0 17 6 10 17 -14 27 -86 34
-36 4 -100 13 -143 21 -42 9 -90 18 -105 20 -42 8 -97 37 -100 54 -1 8 20 42
48 75 27 32 50 62 50 67 0 4 14 27 30 51 17 25 30 47 30 50 0 2 17 22 38 43
20 22 54 66 75 99 21 33 58 88 83 123 l45 62 64 0 c35 0 76 5 91 11 18 6 35 7
49 1 27 -13 98 -32 119 -32 24 0 20 28 -6 35 -11 4 -38 7 -58 7 -33 -1 -39 3
-43 26 -3 15 -2 28 2 30 4 1 5 19 2 40 l-6 37 -75 2 -75 2 -50 -60z m-275
-779 c0 -5 -9 -10 -20 -10 -11 0 -20 5 -20 10 0 6 9 10 20 10 11 0 20 -4 20
-10z m120 -14 c0 -9 -8 -12 -26 -8 -19 3 -22 7 -12 13 20 13 38 11 38 -5z"/>
<path d="M1680 2061 c0 -15 7 -21 23 -22 l22 0 -22 -11 c-35 -17 -27 -27 15
-21 l37 6 -27 -30 c-32 -33 -35 -43 -13 -43 21 0 19 -16 -6 -41 -15 -15 -24
-18 -32 -10 -18 18 -24 13 -48 -34 -21 -42 -21 -46 -6 -63 22 -24 21 -50 -2
-104 -29 -69 -63 -169 -59 -174 3 -2 23 12 45 31 31 26 44 47 54 85 14 56 46
85 81 74 19 -6 20 -10 13 -83 -10 -95 -10 -105 6 -163 11 -43 10 -55 -15 -140
-30 -101 -111 -278 -126 -278 -6 0 -10 -6 -10 -13 0 -7 -11 -24 -24 -38 -13
-14 -35 -44 -50 -67 -39 -62 -231 -253 -306 -306 -80 -56 -218 -136 -234 -136
-11 0 -18 -8 -47 -50 -8 -12 -12 -12 -16 -2 -4 9 -13 7 -36 -11 -42 -31 -62
-38 -76 -24 -6 6 -14 7 -18 3 -4 -4 -2 -11 5 -15 17 -10 -104 -1 -153 11 -22
6 -59 11 -82 12 -26 1 -49 8 -60 18 -16 17 -15 18 30 18 26 0 47 3 47 6 0 13
-46 43 -67 44 -12 0 -26 8 -31 17 -7 11 -24 18 -50 19 -21 1 -53 9 -70 18
l-31 16 44 41 c25 23 45 45 45 49 0 4 -21 4 -47 0 -52 -8 -113 12 -113 37 0
10 -5 11 -19 3 -24 -12 -42 7 -20 21 11 7 10 9 -5 9 -11 0 -16 3 -13 7 4 3 2
12 -4 19 -8 9 -15 9 -37 -2 -27 -13 -28 -15 -22 -74 7 -74 24 -93 105 -118 54
-18 60 -22 67 -53 4 -19 5 -45 2 -59 -3 -19 -2 -21 4 -7 7 17 9 16 21 -7 14
-25 127 -88 183 -101 16 -4 28 -12 28 -17 0 -6 -9 -8 -21 -5 -25 7 -51 -2 -43
-14 3 -5 32 -9 66 -9 l60 0 -4 -55 c-1 -30 0 -55 5 -55 4 0 7 -7 7 -16 0 -8 4
-12 10 -9 11 7 14 -8 3 -19 -4 -4 -6 -22 -5 -41 2 -18 -1 -36 -7 -40 -6 -3
-11 -15 -11 -26 0 -19 8 -20 678 -16 372 3 683 6 690 7 6 2 12 9 12 17 0 7 -6
13 -12 13 -28 0 18 20 46 20 l30 0 -22 20 c-12 11 -27 20 -34 20 -32 1 27 21
62 22 22 0 40 4 40 9 0 5 17 7 38 4 72 -11 232 -21 232 -14 0 3 -19 10 -42 16
-25 5 -42 14 -40 21 1 7 -5 12 -14 12 -8 0 -25 5 -36 11 -20 11 -19 13 21 26
24 8 45 12 49 9 3 -3 -3 -6 -14 -7 -18 0 -18 -1 2 -9 27 -11 74 -1 74 15 0 8
-17 19 -37 26 l-38 14 40 6 40 6 -37 2 c-20 0 -40 6 -44 12 -4 8 1 9 16 4 21
-7 22 -5 16 19 -6 23 -3 26 21 27 27 0 27 1 -7 13 l-34 13 34 11 c32 12 33 13
14 27 -19 14 -19 14 1 15 19 0 18 2 -4 19 -14 11 -21 23 -16 30 9 16 -28 51
-54 51 -14 0 -19 5 -15 15 3 8 13 14 22 13 56 -4 82 3 82 22 0 16 -5 19 -30
13 -23 -4 -30 -2 -30 11 0 21 -17 21 -23 -1 -4 -17 -5 -17 -6 0 -1 18 -18 22
-40 8 -15 -10 -51 -3 -51 10 0 5 11 14 24 21 19 8 34 7 66 -6 22 -9 52 -16 65
-16 l25 0 0 234 0 234 -102 11 c-57 7 -115 14 -129 17 -26 5 -28 2 -67 -118
-49 -152 -150 -330 -180 -320 -7 2 -10 -2 -6 -12 4 -11 1 -16 -11 -16 -12 0
-15 -5 -11 -17 4 -10 4 -15 1 -11 -9 8 -45 -23 -39 -33 7 -11 -33 -50 -48 -46
-8 1 -12 -7 -10 -23 2 -17 -1 -21 -8 -14 -8 8 -22 0 -49 -25 -85 -81 -110
-100 -115 -88 -2 7 -5 4 -5 -5 -1 -11 -9 -18 -22 -18 -14 0 -19 -5 -16 -14 5
-12 -22 -33 -31 -24 -2 2 -8 -5 -13 -14 -6 -10 -17 -18 -24 -18 -8 0 -15 -4
-15 -9 0 -5 -9 -7 -20 -4 -13 3 -20 0 -20 -8 0 -17 -137 -72 -153 -62 -6 4 -8
1 -5 -8 4 -9 -2 -14 -16 -15 -11 0 -53 -4 -93 -8 -63 -7 -73 -6 -90 11 -30 30
-60 33 -111 12 -74 -32 -120 -7 -71 37 12 10 32 35 44 54 46 72 133 156 265
253 334 247 484 473 575 863 19 84 24 121 17 150 -4 22 -5 55 -1 74 6 33 7 34
14 11 8 -23 9 -24 16 -5 4 10 8 31 8 47 1 25 4 27 45 27 l43 0 -5 50 -5 50
149 -6 c82 -3 174 -8 204 -12 30 -4 67 -6 83 -4 26 3 27 5 27 69 l0 66 -190
-6 c-121 -4 -190 -3 -190 3 0 6 -18 10 -40 10 -30 0 -40 4 -40 16 0 9 -7 14
-17 12 -22 -4 -29 -28 -9 -28 9 0 16 -4 16 -10 0 -15 -7 -13 -63 24 -70 47
-87 61 -87 74 0 6 -8 16 -17 21 -12 7 -13 10 -4 11 7 0 22 -11 33 -25 14 -19
29 -25 57 -25 20 0 46 -6 57 -14 14 -10 50 -14 120 -15 54 0 115 -4 134 -10
19 -6 81 -11 137 -11 l103 0 0 50 c0 49 -1 50 -30 50 -16 0 -30 4 -30 9 0 5
-39 7 -87 4 -87 -4 -414 11 -505 23 -44 5 -48 4 -48 -15z m159 -37 c2 -2 2 -6
0 -9 -8 -7 -49 7 -49 17 0 8 38 2 49 -8z m-49 -144 c0 -5 7 -10 15 -10 8 0 15
-4 15 -10 0 -5 6 -10 14 -10 15 0 28 -24 19 -34 -13 -13 -64 -5 -82 13 -10 10
-24 20 -31 23 -9 3 -8 8 4 21 19 19 46 23 46 7z m370 -1270 c0 -5 -5 -10 -11
-10 -5 0 -7 5 -4 10 3 6 8 10 11 10 2 0 4 -4 4 -10z m80 -124 c0 -8 -9 -12
-22 -11 -13 1 -38 3 -55 4 -55 2 -37 17 22 19 40 1 55 -2 55 -12z m80 -16 c0
-5 -7 -10 -16 -10 -8 0 -12 5 -9 10 3 6 10 10 16 10 5 0 9 -4 9 -10z m0 -145
c0 -8 -4 -15 -9 -15 -13 0 -22 16 -14 24 11 11 23 6 23 -9z m-721 -8 c-2 -1
-15 -11 -29 -22 l-25 -20 19 23 c11 12 24 22 29 22 6 0 8 -1 6 -3z m-979 -17
c0 -5 -7 -10 -15 -10 -8 0 -15 5 -15 10 0 6 7 10 15 10 8 0 15 -4 15 -10z
m880 -54 c0 -2 -8 -10 -17 -17 -16 -13 -17 -12 -4 4 13 16 21 21 21 13z m515
-166 c3 -5 1 -10 -4 -10 -6 0 -11 5 -11 10 0 6 2 10 4 10 3 0 8 -4 11 -10z"/>
<path d="M834 1945 c25 -19 46 -19 46 0 0 10 -10 15 -32 15 -31 -1 -32 -1 -14
-15z"/>
<path d="M1380 1955 c0 -8 57 -34 63 -29 13 14 -7 34 -34 34 -16 0 -29 -2 -29
-5z"/>
<path d="M1450 1954 c0 -3 7 -12 15 -21 9 -8 13 -23 10 -33 -4 -14 2 -19 32
-24 55 -9 95 -7 88 3 -3 5 -1 12 5 16 5 3 10 -3 10 -15 0 -12 5 -18 10 -15 6
3 10 15 10 26 0 10 5 19 11 19 19 0 3 25 -17 27 -10 1 -39 7 -64 12 -50 11
-110 14 -110 5z"/>
<path d="M1345 1920 c-3 -5 -1 -10 4 -10 6 0 11 5 11 10 0 6 -2 10 -4 10 -3 0
-8 -4 -11 -10z"/>
<path d="M2320 1390 c0 -5 -7 -10 -15 -10 -8 0 -15 -4 -15 -10 0 -5 20 -10 45
-10 50 0 59 15 19 30 -32 12 -34 12 -34 0z"/>
<path d="M820 668 c-21 -9 -22 -12 -7 -15 23 -6 47 3 47 17 0 12 -8 12 -40 -2z"/>
<path d="M0 490 c0 -41 3 -50 18 -50 10 0 23 5 30 12 9 9 18 9 38 -1 26 -12
26 -12 8 -30 -14 -12 -30 -16 -57 -13 -36 4 -37 3 -37 -27 0 -33 -4 -31 85
-36 64 -3 75 -5 75 -16 0 -8 -24 -9 -80 -4 l-80 7 0 -134 0 -134 44 1 c30 0
42 4 39 13 -3 6 -13 12 -23 12 -10 0 -17 6 -16 13 3 23 17 37 37 37 10 0 19 5
19 11 0 6 -6 9 -14 6 -8 -3 -22 0 -32 7 -25 19 -2 30 58 27 43 -2 48 0 48 20
0 20 -4 21 -42 15 -35 -6 -39 -5 -29 8 9 11 9 15 -1 20 -7 3 8 5 35 3 53 -2
61 6 20 21 -28 10 -27 10 15 17 35 6 41 11 37 25 -4 12 2 24 16 34 20 14 21
16 6 22 -10 3 -26 4 -37 1 -28 -7 -26 19 3 27 l22 6 -22 19 -23 19 28 7 c23 6
24 8 9 16 -9 6 -23 9 -29 8 -7 -2 -30 5 -52 14 -21 9 -42 17 -46 17 -4 0 -13
7 -20 15 -7 8 -21 15 -31 15 -16 0 -19 -8 -19 -50z"/>
<path d="M2320 520 c0 -5 6 -10 14 -10 8 0 21 -3 30 -6 11 -4 16 -1 16 10 0
11 -9 16 -30 16 -16 0 -30 -4 -30 -10z"/>
<path d="M316 377 c3 -10 9 -15 12 -12 3 3 0 11 -7 18 -10 9 -11 8 -5 -6z"/>
<path d="M488 313 c7 -3 16 -2 19 1 4 3 -2 6 -13 5 -11 0 -14 -3 -6 -6z"/>
<path d="M172 221 c4 -13 18 -16 19 -4 0 4 -5 9 -11 12 -7 2 -11 -2 -8 -8z"/>
<path d="M520 220 c-17 -11 -8 -23 14 -18 9 2 12 8 8 15 -5 8 -13 9 -22 3z"/>
<path d="M0 25 c0 -24 2 -25 68 -24 60 0 64 2 37 11 -16 6 -39 17 -50 24 -32
22 -55 18 -55 -11z"/>
</g>
</svg>
