<svg width="25" height="22" viewBox="0 0 25 22" fill="none" xmlns="http://www.w3.org/2000/svg">
<path d="M9.87969 0H12.5C13.7432 0 14.9355 0.49386 15.8146 1.37294C16.6936 2.25201 17.1875 3.4443 17.1875 4.6875V6.25H20.8859C21.3291 6.2499 21.7672 6.34406 22.1712 6.52622C22.5752 6.70838 22.9358 6.97439 23.2291 7.30657C23.5224 7.63876 23.7417 8.02953 23.8725 8.45295C24.0032 8.87638 24.0425 9.32277 23.9875 9.7625L22.4719 21.875H0V7.8125H6.75469L9.87969 0ZM6.25 10.9375H3.125V18.75H6.25V10.9375ZM9.375 18.75H19.7141L20.8859 9.375H14.0625V4.6875C14.0625 4.2731 13.8979 3.87567 13.6049 3.58265C13.3118 3.28962 12.9144 3.125 12.5 3.125H11.9953L9.375 9.67656V18.75Z" fill="white"/>
</svg>
