<svg width="30" height="30" viewBox="0 0 30 30" fill="none" xmlns="http://www.w3.org/2000/svg">
<path fill-rule="evenodd" clip-rule="evenodd" d="M6.34603 1.01277C5.6307 0.346218 4.68456 -0.0166607 3.70696 0.000587901C2.72936 0.0178365 1.79662 0.413866 1.10524 1.10524C0.413866 1.79662 0.0178365 2.72936 0.000587901 3.70696C-0.0166607 4.68456 0.346218 5.6307 1.01277 6.34603L9.66674 15L1.01277 23.654C0.346218 24.3693 -0.0166607 25.3154 0.000587901 26.293C0.0178365 27.2706 0.413866 28.2034 1.10524 28.8948C1.79662 29.5861 2.72936 29.9822 3.70696 29.9994C4.68456 30.0167 5.6307 29.6538 6.34603 28.9872L15 20.3333L23.654 28.9872C24.3693 29.6538 25.3154 30.0167 26.293 29.9994C27.2706 29.9822 28.2034 29.5861 28.8948 28.8948C29.5861 28.2034 29.9822 27.2706 29.9994 26.293C30.0167 25.3154 29.6538 24.3693 28.9872 23.654L20.3333 15L28.9872 6.34603C29.6538 5.6307 30.0167 4.68456 29.9994 3.70696C29.9822 2.72936 29.5861 1.79662 28.8948 1.10524C28.2034 0.413866 27.2706 0.0178365 26.293 0.000587901C25.3154 -0.0166607 24.3693 0.346218 23.654 1.01277L15 9.66674L6.34603 1.01277Z" fill="white"/>
</svg>
